<svg width="75" height="75" viewBox="0 0 75 75" fill="none" xmlns="http://www.w3.org/2000/svg">
<circle cx="37.5" cy="37.5" r="37.5" fill="#0056D2"/>
<g clip-path="url(#clip0_246_264)">
<path d="M23.3333 26C23.3333 29.0378 29.9003 31.5 37.9999 31.5C46.0996 31.5 52.6666 29.0378 52.6666 26C52.6666 22.9622 46.0996 20.5 37.9999 20.5C29.9003 20.5 23.3333 22.9622 23.3333 26Z" stroke="white" stroke-width="3.66667" stroke-linecap="round" stroke-linejoin="round"/>
<path d="M23.3333 26V37C23.3333 40.0378 29.9003 42.5 37.9999 42.5C40.0496 42.5 42.0021 42.3423 43.7749 42.0582" stroke="white" stroke-width="3.66667" stroke-linecap="round" stroke-linejoin="round"/>
<path d="M52.6667 37V26" stroke="white" stroke-width="3.66667" stroke-linecap="round" stroke-linejoin="round"/>
<path d="M23.3333 37V48C23.3333 51.0378 29.9003 53.5 37.9999 53.5C38.2878 53.5 38.5719 53.4963 38.8543 53.4908" stroke="white" stroke-width="3.66667" stroke-linecap="round" stroke-linejoin="round"/>
<path d="M45.3333 49.833H56.3333" stroke="white" stroke-width="3.66667" stroke-linecap="round" stroke-linejoin="round"/>
<path d="M50.8333 44.333L56.3333 49.833L50.8333 55.333" stroke="white" stroke-width="3.66667" stroke-linecap="round" stroke-linejoin="round"/>
</g>
<defs>
<clipPath id="clip0_246_264">
<rect width="44" height="44" fill="white" transform="translate(16 15)"/>
</clipPath>
</defs>
</svg>
