<svg width="75" height="75" viewBox="0 0 75 75" fill="none" xmlns="http://www.w3.org/2000/svg">
<circle cx="37.5" cy="37.5" r="37.5" fill="#0056D2"/>
<g clip-path="url(#clip0_246_297)">
<path d="M21.5 20.5V53.5H54.5" stroke="white" stroke-width="3.66667" stroke-linecap="round" stroke-linejoin="round"/>
<path d="M28.8333 31.4997C28.8333 32.4721 29.2196 33.4048 29.9072 34.0924C30.5948 34.78 31.5275 35.1663 32.4999 35.1663C33.4724 35.1663 34.405 34.78 35.0926 34.0924C35.7803 33.4048 36.1666 32.4721 36.1666 31.4997C36.1666 30.5272 35.7803 29.5946 35.0926 28.9069C34.405 28.2193 33.4724 27.833 32.4999 27.833C31.5275 27.833 30.5948 28.2193 29.9072 28.9069C29.2196 29.5946 28.8333 30.5272 28.8333 31.4997Z" stroke="white" stroke-width="3.66667" stroke-linecap="round" stroke-linejoin="round"/>
<path d="M47.1667 27.8337C47.1667 28.8061 47.5531 29.7387 48.2407 30.4264C48.9283 31.114 49.861 31.5003 50.8334 31.5003C51.8059 31.5003 52.7385 31.114 53.4261 30.4264C54.1138 29.7387 54.5001 28.8061 54.5001 27.8337C54.5001 26.8612 54.1138 25.9286 53.4261 25.2409C52.7385 24.5533 51.8059 24.167 50.8334 24.167C49.861 24.167 48.9283 24.5533 48.2407 25.2409C47.5531 25.9286 47.1667 26.8612 47.1667 27.8337Z" stroke="white" stroke-width="3.66667" stroke-linecap="round" stroke-linejoin="round"/>
<path d="M38 42.4997C38 43.4721 38.3863 44.4048 39.0739 45.0924C39.7616 45.78 40.6942 46.1663 41.6667 46.1663C42.6391 46.1663 43.5718 45.78 44.2594 45.0924C44.947 44.4048 45.3333 43.4721 45.3333 42.4997C45.3333 41.5272 44.947 40.5946 44.2594 39.907C43.5718 39.2193 42.6391 38.833 41.6667 38.833C40.6942 38.833 39.7616 39.2193 39.0739 39.907C38.3863 40.5946 38 41.5272 38 42.4997Z" stroke="white" stroke-width="3.66667" stroke-linecap="round" stroke-linejoin="round"/>
<path d="M34.627 34.4707L38.917 39.7507" stroke="white" stroke-width="3.66667" stroke-linecap="round" stroke-linejoin="round"/>
<path d="M43.6611 39.435L48.8623 31.0273" stroke="white" stroke-width="3.66667" stroke-linecap="round" stroke-linejoin="round"/>
</g>
<defs>
<clipPath id="clip0_246_297">
<rect width="44" height="44" fill="white" transform="translate(16 15)"/>
</clipPath>
</defs>
</svg>
