<svg width="50" height="50" viewBox="0 0 50 50" fill="none" xmlns="http://www.w3.org/2000/svg">
<circle cx="25" cy="25" r="25" fill="#0056D2"/>
<path d="M37 34H36V14C36 13.7348 35.8946 13.4804 35.7071 13.2929C35.5196 13.1054 35.2652 13 35 13H28C27.7348 13 27.4804 13.1054 27.2929 13.2929C27.1054 13.4804 27 13.7348 27 14V19H21C20.7348 19 20.4804 19.1054 20.2929 19.2929C20.1054 19.4804 20 19.7348 20 20V25H15C14.7348 25 14.4804 25.1054 14.2929 25.2929C14.1054 25.4804 14 25.7348 14 26V34H13C12.7348 34 12.4804 34.1054 12.2929 34.2929C12.1054 34.4804 12 34.7348 12 35C12 35.2652 12.1054 35.5196 12.2929 35.7071C12.4804 35.8946 12.7348 36 13 36H37C37.2652 36 37.5196 35.8946 37.7071 35.7071C37.8946 35.5196 38 35.2652 38 35C38 34.7348 37.8946 34.4804 37.7071 34.2929C37.5196 34.1054 37.2652 34 37 34ZM29 15H34V34H29V15ZM22 21H27V34H22V21ZM16 27H20V34H16V27Z" fill="white"/>
</svg>
