<svg width="75" height="119" viewBox="0 0 75 119" fill="none" xmlns="http://www.w3.org/2000/svg">
<circle cx="37.5" cy="37.5" r="37.5" fill="#0056D2"/>
<path d="M33.7353 23.768L28.9353 43.256L27.7833 37.688C29.6393 37.688 31.1753 38.264 32.3913 39.416C33.6073 40.568 34.2153 42.104 34.2153 44.024C34.2153 45.944 33.6073 47.512 32.3913 48.728C31.1753 49.944 29.6713 50.552 27.8793 50.552C26.0233 50.552 24.4873 49.944 23.2713 48.728C22.0553 47.448 21.4473 45.88 21.4473 44.024C21.4473 43.384 21.4793 42.776 21.5433 42.2C21.6713 41.624 21.8633 40.952 22.1193 40.184C22.3753 39.352 22.7273 38.36 23.1753 37.208L27.6873 23.768H33.7353ZM51.8793 23.768L47.0793 43.256L45.9273 37.688C47.7833 37.688 49.3193 38.264 50.5353 39.416C51.7513 40.568 52.3593 42.104 52.3593 44.024C52.3593 45.944 51.7513 47.512 50.5353 48.728C49.3193 49.944 47.8153 50.552 46.0233 50.552C44.1673 50.552 42.6313 49.944 41.4153 48.728C40.1993 47.448 39.5913 45.88 39.5913 44.024C39.5913 43.384 39.6233 42.776 39.6873 42.2C39.8153 41.624 40.0073 40.952 40.2633 40.184C40.5193 39.352 40.8713 38.36 41.3193 37.208L45.8313 23.768H51.8793Z" fill="white"/>
</svg>
