<svg width="50" height="50" viewBox="0 0 50 50" fill="none" xmlns="http://www.w3.org/2000/svg">
<circle cx="25" cy="25" r="25" fill="#0056D2"/>
<path d="M34 15H26V11C26 10.7348 25.8946 10.4804 25.7071 10.2929C25.5196 10.1054 25.2652 10 25 10C24.7348 10 24.4804 10.1054 24.2929 10.2929C24.1054 10.4804 24 10.7348 24 11V15H16C14.9391 15 13.9217 15.4214 13.1716 16.1716C12.4214 16.9217 12 17.9391 12 19V33C12 34.0609 12.4214 35.0783 13.1716 35.8284C13.9217 36.5786 14.9391 37 16 37H34C35.0609 37 36.0783 36.5786 36.8284 35.8284C37.5786 35.0783 38 34.0609 38 33V19C38 17.9391 37.5786 16.9217 36.8284 16.1716C36.0783 15.4214 35.0609 15 34 15ZM36 33C36 33.5304 35.7893 34.0391 35.4142 34.4142C35.0391 34.7893 34.5304 35 34 35H16C15.4696 35 14.9609 34.7893 14.5858 34.4142C14.2107 34.0391 14 33.5304 14 33V19C14 18.4696 14.2107 17.9609 14.5858 17.5858C14.9609 17.2107 15.4696 17 16 17H34C34.5304 17 35.0391 17.2107 35.4142 17.5858C35.7893 17.9609 36 18.4696 36 19V33ZM29.5 26H20.5C19.5717 26 18.6815 26.3687 18.0251 27.0251C17.3687 27.6815 17 28.5717 17 29.5C17 30.4283 17.3687 31.3185 18.0251 31.9749C18.6815 32.6313 19.5717 33 20.5 33H29.5C30.4283 33 31.3185 32.6313 31.9749 31.9749C32.6313 31.3185 33 30.4283 33 29.5C33 28.5717 32.6313 27.6815 31.9749 27.0251C31.3185 26.3687 30.4283 26 29.5 26ZM26.5 28V31H23.5V28H26.5ZM19 29.5C19 29.1022 19.158 28.7206 19.4393 28.4393C19.7206 28.158 20.1022 28 20.5 28H21.5V31H20.5C20.1022 31 19.7206 30.842 19.4393 30.5607C19.158 30.2794 19 29.8978 19 29.5ZM29.5 31H28.5V28H29.5C29.8978 28 30.2794 28.158 30.5607 28.4393C30.842 28.7206 31 29.1022 31 29.5C31 29.8978 30.842 30.2794 30.5607 30.5607C30.2794 30.842 29.8978 31 29.5 31ZM18 22.5C18 22.2033 18.088 21.9133 18.2528 21.6666C18.4176 21.42 18.6519 21.2277 18.926 21.1142C19.2001 21.0006 19.5017 20.9709 19.7926 21.0288C20.0836 21.0867 20.3509 21.2296 20.5607 21.4393C20.7704 21.6491 20.9133 21.9164 20.9712 22.2074C21.0291 22.4983 20.9994 22.7999 20.8858 23.074C20.7723 23.3481 20.58 23.5824 20.3334 23.7472C20.0867 23.912 19.7967 24 19.5 24C19.1022 24 18.7206 23.842 18.4393 23.5607C18.158 23.2794 18 22.8978 18 22.5ZM29 22.5C29 22.2033 29.088 21.9133 29.2528 21.6666C29.4176 21.42 29.6519 21.2277 29.926 21.1142C30.2001 21.0006 30.5017 20.9709 30.7926 21.0288C31.0836 21.0867 31.3509 21.2296 31.5607 21.4393C31.7704 21.6491 31.9133 21.9164 31.9712 22.2074C32.0291 22.4983 31.9993 22.7999 31.8858 23.074C31.7723 23.3481 31.58 23.5824 31.3334 23.7472C31.0867 23.912 30.7967 24 30.5 24C30.1022 24 29.7206 23.842 29.4393 23.5607C29.158 23.2794 29 22.8978 29 22.5Z" fill="white"/>
</svg>
