<svg width="43" height="44" viewBox="0 0 43 44" fill="none" xmlns="http://www.w3.org/2000/svg">
<path d="M0.0518188 43.2967C0.0518188 35.431 6.42817 29.0547 14.2938 29.0547H42.7777C42.7777 36.9203 36.4014 43.2967 28.5358 43.2967H0.0518188Z" fill="url(#paint0_linear_141_39)"/>
<path d="M42.7777 0.570526C42.7777 8.43615 36.4014 14.8125 28.5358 14.8125L0.051815 14.8125C0.051815 6.94688 6.42817 0.570526 14.2938 0.570526L42.7777 0.570526Z" fill="url(#paint1_linear_141_39)"/>
<path d="M0.328335 15.0866C0.474264 22.6746 6.67093 28.7808 14.2938 28.7808H42.5012C42.3553 21.1928 36.1586 15.0866 28.5358 15.0866H0.328335Z" fill="#0056D2" stroke="#0056D2" stroke-width="0.547768"/>
<defs>
<linearGradient id="paint0_linear_141_39" x1="18.1391" y1="24.2124" x2="29.6751" y2="43.2967" gradientUnits="userSpaceOnUse">
<stop stop-color="#00D1FF"/>
<stop offset="1" stop-color="#0056D2"/>
</linearGradient>
<linearGradient id="paint1_linear_141_39" x1="24.6904" y1="19.6548" x2="13.1544" y2="0.570525" gradientUnits="userSpaceOnUse">
<stop stop-color="#00D1FF"/>
<stop offset="1" stop-color="#0056D2"/>
</linearGradient>
</defs>
</svg>
