<svg width="200" height="85" viewBox="0 0 200 85" fill="none" xmlns="http://www.w3.org/2000/svg">
<path d="M7.05182 64.2967C7.05182 56.431 13.4282 50.0547 21.2938 50.0547H49.7777C49.7777 57.9203 43.4014 64.2967 35.5358 64.2967H7.05182Z" fill="url(#paint0_linear_141_38)"/>
<path d="M49.7777 21.5705C49.7777 29.4362 43.4014 35.8125 35.5358 35.8125L7.05182 35.8125C7.05182 27.9469 13.4282 21.5705 21.2938 21.5705L49.7777 21.5705Z" fill="url(#paint1_linear_141_38)"/>
<path d="M7.32833 36.0866C7.47426 43.6746 13.6709 49.7808 21.2938 49.7808H49.5012C49.3553 42.1928 43.1586 36.0866 35.5358 36.0866H7.32833Z" fill="#0056D2" stroke="#0056D2" stroke-width="0.547768"/>
<path d="M69.5893 49.9008C67.6513 49.9008 65.8991 49.569 64.3328 48.9053C62.793 48.2416 61.5718 47.2858 60.6692 46.0381C59.7665 44.7903 59.3019 43.3169 59.2754 41.6178H65.2487C65.3284 42.7594 65.7266 43.662 66.4434 44.3257C67.1867 44.9894 68.1956 45.3213 69.4699 45.3213C70.7707 45.3213 71.7928 45.016 72.5362 44.4054C73.2795 43.7682 73.6512 42.9452 73.6512 41.9364C73.6512 41.1134 73.399 40.4364 72.8946 39.9054C72.3902 39.3745 71.753 38.963 70.9831 38.671C70.2398 38.3524 69.2044 38.0073 67.877 37.6356C66.0717 37.1046 64.5983 36.5869 63.4567 36.0825C62.3417 35.5516 61.3727 34.7684 60.5497 33.733C59.7532 32.6711 59.355 31.264 59.355 29.5118C59.355 27.8659 59.7665 26.4323 60.5895 25.211C61.4125 23.9898 62.5673 23.0606 64.054 22.4235C65.5407 21.7598 67.2398 21.4279 69.1513 21.4279C72.0185 21.4279 74.3415 22.1315 76.1202 23.5385C77.9255 24.919 78.921 26.857 79.1068 29.3526H72.9742C72.9211 28.3968 72.5096 27.6137 71.7397 27.003C70.9964 26.3659 70.0008 26.0473 68.7531 26.0473C67.6646 26.0473 66.7885 26.3261 66.1248 26.8836C65.4876 27.4411 65.1691 28.2508 65.1691 29.3127C65.1691 30.0561 65.408 30.68 65.8859 31.1844C66.3903 31.6622 67.0009 32.0605 67.7177 32.379C68.461 32.6711 69.4964 33.0162 70.8238 33.4144C72.6291 33.9454 74.1025 34.4764 75.2441 35.0073C76.3857 35.5383 77.3679 36.3347 78.1909 37.3966C79.0139 38.4586 79.4254 39.8524 79.4254 41.578C79.4254 43.0647 79.0405 44.4452 78.2706 45.7195C77.5007 46.9938 76.3724 48.0159 74.8857 48.7858C73.399 49.5292 71.6335 49.9008 69.5893 49.9008ZM90.7499 32.1401V42.8125C90.7499 43.5558 90.9224 44.1001 91.2676 44.4452C91.6392 44.7638 92.2498 44.923 93.0994 44.923H95.6878V49.6221H92.1835C87.4844 49.6221 85.1349 47.3389 85.1349 42.7726V32.1401H82.5067V27.5606H85.1349V22.1049H90.7499V27.5606H95.6878V32.1401H90.7499ZM98.2641 38.5117C98.2641 36.2816 98.7022 34.3038 99.5783 32.5782C100.481 30.8525 101.689 29.5251 103.202 28.5959C104.742 27.6668 106.454 27.2022 108.339 27.2022C109.985 27.2022 111.419 27.534 112.64 28.1977C113.888 28.8614 114.883 29.6977 115.627 30.7065V27.5606H121.242V49.6221H115.627V46.3965C114.91 47.4318 113.914 48.2947 112.64 48.9849C111.392 49.6486 109.945 49.9805 108.299 49.9805C106.441 49.9805 104.742 49.5026 103.202 48.5469C101.689 47.5911 100.481 46.2505 99.5783 44.5248C98.7022 42.7726 98.2641 40.7683 98.2641 38.5117ZM115.627 38.5913C115.627 37.2374 115.361 36.0825 114.83 35.1268C114.299 34.1445 113.582 33.4012 112.68 32.8967C111.777 32.3658 110.808 32.1003 109.773 32.1003C108.737 32.1003 107.782 32.3525 106.906 32.8569C106.029 33.3613 105.313 34.1047 104.755 35.087C104.224 36.0427 103.959 37.1843 103.959 38.5117C103.959 39.8391 104.224 41.0072 104.755 42.016C105.313 42.9983 106.029 43.7549 106.906 44.2859C107.808 44.8169 108.764 45.0823 109.773 45.0823C110.808 45.0823 111.777 44.8301 112.68 44.3257C113.582 43.7948 114.299 43.0514 114.83 42.0957C115.361 41.1134 115.627 39.9453 115.627 38.5913ZM125.253 38.5913C125.253 36.3082 125.718 34.3171 126.647 32.618C127.576 30.8924 128.864 29.5649 130.51 28.6358C132.156 27.68 134.04 27.2022 136.164 27.2022C138.899 27.2022 141.155 27.8924 142.934 29.2729C144.739 30.6269 145.947 32.5383 146.558 35.0073H140.545C140.226 34.0516 139.682 33.3082 138.912 32.7773C138.169 32.2198 137.24 31.941 136.124 31.941C134.532 31.941 133.271 32.5251 132.341 33.6932C131.412 34.8348 130.948 36.4675 130.948 38.5913C130.948 40.6886 131.412 42.3213 132.341 43.4894C133.271 44.631 134.532 45.2018 136.124 45.2018C138.381 45.2018 139.855 44.193 140.545 42.1753H146.558C145.947 44.5646 144.739 46.4628 142.934 47.8699C141.129 49.2769 138.872 49.9805 136.164 49.9805C134.04 49.9805 132.156 49.5159 130.51 48.5867C128.864 47.631 127.576 46.3036 126.647 44.6045C125.718 42.8788 125.253 40.8745 125.253 38.5913ZM160.438 49.9805C158.315 49.9805 156.403 49.5159 154.704 48.5867C153.005 47.631 151.664 46.2903 150.682 44.5646C149.726 42.839 149.248 40.8479 149.248 38.5913C149.248 36.3347 149.74 34.3436 150.722 32.618C151.731 30.8924 153.098 29.5649 154.824 28.6358C156.549 27.68 158.474 27.2022 160.598 27.2022C162.722 27.2022 164.646 27.68 166.372 28.6358C168.098 29.5649 169.452 30.8924 170.434 32.618C171.443 34.3436 171.947 36.3347 171.947 38.5913C171.947 40.8479 171.429 42.839 170.394 44.5646C169.385 46.2903 168.005 47.631 166.252 48.5867C164.527 49.5159 162.589 49.9805 160.438 49.9805ZM160.438 45.1222C161.447 45.1222 162.39 44.8832 163.266 44.4054C164.168 43.9009 164.885 43.1576 165.416 42.1753C165.947 41.193 166.213 39.9984 166.213 38.5913C166.213 36.494 165.655 34.8878 164.54 33.7728C163.452 32.6313 162.111 32.0605 160.518 32.0605C158.925 32.0605 157.585 32.6313 156.496 33.7728C155.434 34.8878 154.903 36.494 154.903 38.5913C154.903 40.6886 155.421 42.3081 156.456 43.4496C157.518 44.5646 158.846 45.1222 160.438 45.1222ZM65.4769 54.1986C66.572 54.1986 67.5327 54.4126 68.359 54.8407C69.1953 55.2688 69.8374 55.8811 70.2854 56.6775C70.7434 57.464 70.9724 58.3799 70.9724 59.4253C70.9724 60.4706 70.7434 61.3865 70.2854 62.173C69.8374 62.9495 69.1953 63.5518 68.359 63.9799C67.5327 64.408 66.572 64.6221 65.4769 64.6221H61.8332V54.1986H65.4769ZM65.4022 62.845C66.4974 62.845 67.3436 62.5463 67.9409 61.949C68.5382 61.3517 68.8369 60.5104 68.8369 59.4253C68.8369 58.3401 68.5382 57.4939 67.9409 56.8866C67.3436 56.2694 66.4974 55.9607 65.4022 55.9607H63.9238V62.845H65.4022ZM71.9997 60.4557C71.9997 59.6194 72.164 58.8777 72.4925 58.2306C72.831 57.5835 73.284 57.0857 73.8515 56.7373C74.4289 56.3888 75.071 56.2146 75.7779 56.2146C76.3951 56.2146 76.9327 56.339 77.3907 56.5879C77.8586 56.8368 78.2319 57.1504 78.5107 57.5287V56.349H80.6163V64.6221H78.5107V63.4125C78.2419 63.8007 77.8685 64.1243 77.3907 64.3831C76.9228 64.632 76.3802 64.7565 75.7629 64.7565C75.0661 64.7565 74.4289 64.5773 73.8515 64.2189C73.284 63.8605 72.831 63.3577 72.4925 62.7106C72.164 62.0535 71.9997 61.3019 71.9997 60.4557ZM78.5107 60.4855C78.5107 59.9778 78.4111 59.5447 78.212 59.1863C78.0129 58.818 77.7441 58.5392 77.4056 58.3501C77.0671 58.151 76.7037 58.0514 76.3155 58.0514C75.9272 58.0514 75.5688 58.146 75.2403 58.3351C74.9117 58.5243 74.6429 58.803 74.4339 59.1714C74.2348 59.5298 74.1352 59.9579 74.1352 60.4557C74.1352 60.9534 74.2348 61.3915 74.4339 61.7698C74.6429 62.1382 74.9117 62.4219 75.2403 62.621C75.5788 62.8201 75.9372 62.9197 76.3155 62.9197C76.7037 62.9197 77.0671 62.8251 77.4056 62.6359C77.7441 62.4368 78.0129 62.1581 78.212 61.7997C78.4111 61.4313 78.5107 60.9933 78.5107 60.4855ZM85.0923 58.0663V62.0685C85.0923 62.3472 85.157 62.5513 85.2864 62.6807C85.4258 62.8002 85.6548 62.8599 85.9734 62.8599H86.944V64.6221H85.6299C83.8678 64.6221 82.9867 63.7659 82.9867 62.0535V58.0663H82.0011V56.349H82.9867V54.3031H85.0923V56.349H86.944V58.0663H85.0923ZM87.9102 60.4557C87.9102 59.6194 88.0744 58.8777 88.403 58.2306C88.7415 57.5835 89.1944 57.0857 89.7619 56.7373C90.3393 56.3888 90.9815 56.2146 91.6883 56.2146C92.3055 56.2146 92.8431 56.339 93.3011 56.5879C93.769 56.8368 94.1423 57.1504 94.4211 57.5287V56.349H96.5267V64.6221H94.4211V63.4125C94.1523 63.8007 93.779 64.1243 93.3011 64.3831C92.8332 64.632 92.2906 64.7565 91.6734 64.7565C90.9765 64.7565 90.3393 64.5773 89.7619 64.2189C89.1944 63.8605 88.7415 63.3577 88.403 62.7106C88.0744 62.0535 87.9102 61.3019 87.9102 60.4557ZM94.4211 60.4855C94.4211 59.9778 94.3215 59.5447 94.1224 59.1863C93.9233 58.818 93.6545 58.5392 93.316 58.3501C92.9775 58.151 92.6142 58.0514 92.2259 58.0514C91.8376 58.0514 91.4792 58.146 91.1507 58.3351C90.8222 58.5243 90.5534 58.803 90.3443 59.1714C90.1452 59.5298 90.0456 59.9579 90.0456 60.4557C90.0456 60.9534 90.1452 61.3915 90.3443 61.7698C90.5534 62.1382 90.8222 62.4219 91.1507 62.621C91.4892 62.8201 91.8476 62.9197 92.2259 62.9197C92.6142 62.9197 92.9775 62.8251 93.316 62.6359C93.6545 62.4368 93.9233 62.1581 94.1224 61.7997C94.3215 61.4313 94.4211 60.9933 94.4211 60.4855ZM105.726 64.7266C104.999 64.7266 104.342 64.6022 103.755 64.3533C103.177 64.1044 102.719 63.746 102.381 63.2781C102.042 62.8102 101.868 62.2576 101.858 61.6205H104.098C104.128 62.0486 104.277 62.387 104.546 62.6359C104.825 62.8848 105.203 63.0093 105.681 63.0093C106.169 63.0093 106.552 62.8948 106.831 62.6658C107.11 62.4269 107.249 62.1182 107.249 61.7399C107.249 61.4313 107.154 61.1774 106.965 60.9783C106.776 60.7792 106.537 60.6249 106.249 60.5154C105.97 60.3959 105.582 60.2665 105.084 60.1271C104.407 59.928 103.854 59.7339 103.426 59.5447C103.008 59.3456 102.645 59.0519 102.336 58.6637C102.037 58.2654 101.888 57.7378 101.888 57.0807C101.888 56.4635 102.042 55.9259 102.351 55.4679C102.66 55.01 103.093 54.6615 103.65 54.4226C104.208 54.1737 104.845 54.0493 105.562 54.0493C106.637 54.0493 107.508 54.3131 108.175 54.8407C108.852 55.3584 109.225 56.0852 109.295 57.021H106.995C106.975 56.6626 106.821 56.3689 106.532 56.1399C106.254 55.901 105.88 55.7815 105.412 55.7815C105.004 55.7815 104.676 55.8861 104.427 56.0951C104.188 56.3042 104.068 56.6078 104.068 57.0061C104.068 57.2848 104.158 57.5188 104.337 57.7079C104.526 57.8871 104.755 58.0365 105.024 58.1559C105.303 58.2654 105.691 58.3949 106.189 58.5442C106.866 58.7433 107.418 58.9424 107.846 59.1415C108.274 59.3406 108.643 59.6393 108.951 60.0375C109.26 60.4358 109.414 60.9584 109.414 61.6055C109.414 62.163 109.27 62.6807 108.981 63.1586C108.693 63.6365 108.27 64.0198 107.712 64.3085C107.154 64.5872 106.492 64.7266 105.726 64.7266ZM114.901 64.7565C114.104 64.7565 113.387 64.5822 112.75 64.2338C112.113 63.8754 111.61 63.3726 111.242 62.7255C110.883 62.0784 110.704 61.3318 110.704 60.4855C110.704 59.6393 110.888 58.8926 111.257 58.2455C111.635 57.5984 112.148 57.1006 112.795 56.7522C113.442 56.3938 114.164 56.2146 114.96 56.2146C115.757 56.2146 116.478 56.3938 117.126 56.7522C117.773 57.1006 118.28 57.5984 118.649 58.2455C119.027 58.8926 119.216 59.6393 119.216 60.4855C119.216 61.3318 119.022 62.0784 118.634 62.7255C118.256 63.3726 117.738 63.8754 117.081 64.2338C116.434 64.5822 115.707 64.7565 114.901 64.7565ZM114.901 62.9346C115.279 62.9346 115.632 62.845 115.961 62.6658C116.299 62.4766 116.568 62.1979 116.767 61.8295C116.966 61.4612 117.066 61.0132 117.066 60.4855C117.066 59.699 116.857 59.0967 116.439 58.6786C116.03 58.2505 115.528 58.0365 114.93 58.0365C114.333 58.0365 113.83 58.2505 113.422 58.6786C113.024 59.0967 112.825 59.699 112.825 60.4855C112.825 61.272 113.019 61.8793 113.407 62.3074C113.805 62.7255 114.303 62.9346 114.901 62.9346ZM122.841 53.5714V64.6221H120.75V53.5714H122.841ZM132.716 56.349V64.6221H130.611V63.5767C130.342 63.9351 129.988 64.2189 129.55 64.4279C129.122 64.627 128.654 64.7266 128.147 64.7266C127.5 64.7266 126.927 64.5922 126.429 64.3234C125.932 64.0446 125.538 63.6414 125.25 63.1138C124.971 62.5762 124.831 61.939 124.831 61.2023V56.349H126.922V60.9037C126.922 61.5607 127.086 62.0685 127.415 62.4269C127.743 62.7753 128.191 62.9495 128.759 62.9495C129.336 62.9495 129.789 62.7753 130.118 62.4269C130.446 62.0685 130.611 61.5607 130.611 60.9037V56.349H132.716ZM137.213 58.0663V62.0685C137.213 62.3472 137.278 62.5513 137.407 62.6807C137.547 62.8002 137.776 62.8599 138.094 62.8599H139.065V64.6221H137.751C135.989 64.6221 135.108 63.7659 135.108 62.0535V58.0663H134.122V56.349H135.108V54.3031H137.213V56.349H139.065V58.0663H137.213ZM141.629 55.3634C141.261 55.3634 140.952 55.2489 140.703 55.0199C140.464 54.781 140.345 54.4873 140.345 54.1389C140.345 53.7904 140.464 53.5017 140.703 53.2727C140.952 53.0338 141.261 52.9143 141.629 52.9143C141.997 52.9143 142.301 53.0338 142.54 53.2727C142.789 53.5017 142.913 53.7904 142.913 54.1389C142.913 54.4873 142.789 54.781 142.54 55.0199C142.301 55.2489 141.997 55.3634 141.629 55.3634ZM142.659 56.349V64.6221H140.569V56.349H142.659ZM148.398 64.7565C147.602 64.7565 146.885 64.5822 146.248 64.2338C145.611 63.8754 145.108 63.3726 144.74 62.7255C144.381 62.0784 144.202 61.3318 144.202 60.4855C144.202 59.6393 144.386 58.8926 144.755 58.2455C145.133 57.5984 145.646 57.1006 146.293 56.7522C146.94 56.3938 147.662 56.2146 148.458 56.2146C149.255 56.2146 149.976 56.3938 150.624 56.7522C151.271 57.1006 151.778 57.5984 152.147 58.2455C152.525 58.8926 152.714 59.6393 152.714 60.4855C152.714 61.3318 152.52 62.0784 152.132 62.7255C151.753 63.3726 151.236 63.8754 150.579 64.2338C149.932 64.5822 149.205 64.7565 148.398 64.7565ZM148.398 62.9346C148.777 62.9346 149.13 62.845 149.459 62.6658C149.797 62.4766 150.066 62.1979 150.265 61.8295C150.464 61.4612 150.564 61.0132 150.564 60.4855C150.564 59.699 150.355 59.0967 149.937 58.6786C149.528 58.2505 149.026 58.0365 148.428 58.0365C147.831 58.0365 147.328 58.2505 146.92 58.6786C146.522 59.0967 146.323 59.699 146.323 60.4855C146.323 61.272 146.517 61.8793 146.905 62.3074C147.303 62.7255 147.801 62.9346 148.398 62.9346ZM158.832 56.2295C159.818 56.2295 160.614 56.5431 161.222 57.1703C161.829 57.7876 162.133 58.6537 162.133 59.7687V64.6221H160.042V60.0525C160.042 59.3954 159.878 58.8926 159.549 58.5442C159.221 58.1858 158.773 58.0066 158.205 58.0066C157.628 58.0066 157.17 58.1858 156.831 58.5442C156.503 58.8926 156.338 59.3954 156.338 60.0525V64.6221H154.248V56.349H156.338V57.3794C156.617 57.021 156.971 56.7422 157.399 56.5431C157.837 56.3341 158.315 56.2295 158.832 56.2295ZM167.287 64.7565C166.61 64.7565 166.002 64.637 165.465 64.3981C164.927 64.1492 164.499 63.8157 164.18 63.3975C163.872 62.9794 163.703 62.5165 163.673 62.0087H165.778C165.818 62.3273 165.972 62.5911 166.241 62.8002C166.52 63.0093 166.863 63.1138 167.272 63.1138C167.67 63.1138 167.978 63.0342 168.197 62.8749C168.426 62.7156 168.541 62.5115 168.541 62.2626C168.541 61.9938 168.402 61.7947 168.123 61.6653C167.854 61.5259 167.421 61.3766 166.824 61.2173C166.206 61.0679 165.699 60.9136 165.3 60.7543C164.912 60.595 164.574 60.3511 164.285 60.0226C164.006 59.6941 163.867 59.251 163.867 58.6935C163.867 58.2356 163.996 57.8174 164.255 57.4391C164.524 57.0608 164.902 56.7622 165.39 56.5431C165.888 56.3241 166.47 56.2146 167.137 56.2146C168.123 56.2146 168.909 56.4635 169.497 56.9613C170.084 57.4491 170.408 58.1111 170.467 58.9474H168.466C168.436 58.6189 168.297 58.36 168.048 58.1709C167.809 57.9718 167.486 57.8722 167.077 57.8722C166.699 57.8722 166.405 57.9419 166.196 58.0813C165.997 58.2206 165.898 58.4148 165.898 58.6637C165.898 58.9424 166.037 59.1565 166.316 59.3058C166.595 59.4452 167.028 59.5895 167.615 59.7389C168.212 59.8882 168.705 60.0425 169.093 60.2018C169.482 60.3611 169.815 60.61 170.094 60.9485C170.383 61.277 170.532 61.715 170.542 62.2626C170.542 62.7405 170.408 63.1686 170.139 63.5469C169.88 63.9252 169.502 64.2238 169.004 64.4429C168.516 64.6519 167.944 64.7565 167.287 64.7565Z" fill="#3C4043"/>
<defs>
<linearGradient id="paint0_linear_141_38" x1="25.1391" y1="45.2124" x2="36.6751" y2="64.2967" gradientUnits="userSpaceOnUse">
<stop stop-color="#00D1FF"/>
<stop offset="1" stop-color="#0056D2"/>
</linearGradient>
<linearGradient id="paint1_linear_141_38" x1="31.6904" y1="40.6548" x2="20.1544" y2="21.5705" gradientUnits="userSpaceOnUse">
<stop stop-color="#00D1FF"/>
<stop offset="1" stop-color="#0056D2"/>
</linearGradient>
</defs>
</svg>
